<?xml version="1.0" encoding="utf-8"?>
<!-- Generator: Adobe Illustrator 16.0.0, SVG Export Plug-In . SVG Version: 6.00 Build 0)  -->
<!DOCTYPE svg PUBLIC "-//W3C//DTD SVG 1.1//EN" "http://www.w3.org/Graphics/SVG/1.1/DTD/svg11.dtd">
<svg version="1.1" id="Layer_1" xmlns="http://www.w3.org/2000/svg" xmlns:xlink="http://www.w3.org/1999/xlink" x="0px" y="0px"
	 width="16px" height="16px" viewBox="0 0 16 16" enable-background="new 0 0 16 16" xml:space="preserve">
<path fill="none" stroke="#00A3FF" stroke-width="0.7" stroke-miterlimit="10" d="M6.742,14.185l-0.005,0.005L6.603,14.29
	l-0.449,0.335c-0.125,0.095-0.296,0.11-0.44,0.04c-0.144-0.071-0.23-0.216-0.23-0.375v-0.559v-0.167v-0.009v-0.104v-1.258H4.226
	H2.968c-0.925,0-1.677-0.752-1.677-1.678V2.969c0-0.925,0.752-1.677,1.677-1.677h10.063c0.925,0,1.677,0.752,1.677,1.677v7.546
	c0,0.926-0.752,1.678-1.677,1.678H9.396L6.742,14.185z"/>
<path fill="#00A3FF" d="M8,3.354c-1.643,0-2.973,1.292-2.973,2.888v0.556c0,0.185-0.152,0.333-0.343,0.333
	c-0.19,0-0.343-0.148-0.343-0.333V6.242c0-1.964,1.637-3.555,3.658-3.555c2.021,0,3.658,1.591,3.658,3.555v2
	c0,0.148-0.249,1.223-1.252,1.219L8.83,10.057c-0.127,0.201-0.348,0.337-0.602,0.337H7.771c-0.379,0-0.687-0.299-0.687-0.666
	c0-0.368,0.308-0.667,0.687-0.667h0.457c0.254,0,0.475,0.134,0.594,0.334l1.541-0.5c0.315,0,0.608-0.345,0.608-0.652v-2
	C10.972,4.646,9.642,3.354,8,3.354z"/>
<path fill="#00A3FF" d="M4.456,5.659h0.229c0.253,0,0.457,0.198,0.457,0.444v1.555c0,0.246-0.204,0.445-0.457,0.445H4.456
	c-0.504,0-0.915-0.398-0.915-0.89V6.548C3.542,6.057,3.952,5.659,4.456,5.659z"/>
<path fill="#00A3FF" d="M11.545,5.659c0.503,0,0.914,0.398,0.914,0.889v0.666c0,0.491-0.411,0.889-0.914,0.889h-0.229
	c-0.253,0-0.458-0.199-0.458-0.444V6.104c0-0.247,0.205-0.444,0.458-0.444H11.545z"/>
</svg>
