<svg xmlns="http://www.w3.org/2000/svg" xmlns:xlink="http://www.w3.org/1999/xlink" width="80" height="89" viewBox="0 0 80 89">
    <defs>
        <path id="r37twdu1ca" d="M0 0.275L79.828 0.275 79.828 89 0 89z"/>
    </defs>
    <g fill="none" fill-rule="evenodd">
        <g>
            <g style="perspective: 1000px;">
                <g style="transform-style:preserve-3d">
                    <g transform="translate(-140 -278) translate(16 233) translate(19) translate(105 45)">
                        <mask id="sg0e3am6cb" fill="#fff">
                            <use xlink:href="#r37twdu1ca"/>
                        </mask>
                        <path class="poly" fill="#FFEC00" d="M79.828 69.426V21.228c0-2.384-1.224-4.59-3.221-5.847-.203-.127-.418-.234-.634-.335L49.923 2.882C43.7-.594 36.13-.594 29.906 2.882L3.855 15.046c-.216.101-.43.208-.633.335C1.224 16.638 0 18.844 0 21.228v48.198c0 1.629.571 3.173 1.569 4.39.712.868 1.656 1.514 2.69 1.943l25.646 10.634c6.224 3.476 13.794 3.476 20.019 0l25.644-10.634c1.035-.43 1.979-1.075 2.691-1.943.998-1.217 1.57-2.761 1.57-4.39" mask="url(#sg0e3am6cb)"/>
                        <path class="l" fill="#FDAB00" d="M37.515 54.765c-.951 0-1.726-.774-1.726-1.72V27.717c0-.945-.778-1.716-1.726-1.716h-5.337c-.951 0-1.726.77-1.726 1.716V55.2c0 .944.547 2.265 1.22 2.93l2.669 2.656c.672.666 1.998 1.214 2.948 1.214h18.438c.947 0 1.725-.772 1.725-1.718V56.48c0-.946-.778-1.715-1.725-1.715h-14.76z" mask="url(#sg0e3am6cb)"/>
                    </g>
                </g>
            </g>
        </g>
    </g>

    <style>
        .poly{transform:rotate(0deg); transform-origin: center center; opacity: 0; animation: ani 0.5s ease-out alternate 1 forwards; animation-delay: 250ms;}
        @keyframes ani{
            0%{transform: rotateY(500deg) scale(1); opacity: 0;}
            10%{opacity: 1;}
            100%{transform: rotateY(0deg) scale(1.0); opacity: 1;}
        }

        .l{transform:rotate(0deg); transform-origin: center center; opacity: 0; animation: ani2 0.6s ease-out alternate 1 forwards; animation-delay: 250ms;}
        @keyframes ani2{
            0%{transform: rotateY(-500deg) scale(1); opacity: 0;}
            10%{opacity: 1;}
            100%{transform: rotateY(0deg) scale(1.0); opacity: 1;}
        }
    </style>
    <script>
    </script>
</svg>
